<?xml version="1.0" encoding="UTF-8"?> <svg xmlns="http://www.w3.org/2000/svg" width="240" height="240" viewBox="0 0 240 240" fill="none"> <path fill-rule="evenodd" clip-rule="evenodd" d="M72.6735 103.62L153.42 23.9253C184.818 34.9133 210.276 61.068 218.664 95.6213V95.6227C231.803 149.753 198.266 204.789 144.136 217.927C138.13 219.385 132.112 220.264 126.143 220.609L108.132 238.384C121.296 239.757 134.89 238.955 148.439 235.665H148.442C212.328 220.16 251.908 155.203 236.403 91.3187L236.402 91.3147C225.616 46.8787 190.904 14.2107 149.272 3.65067L138.872 13.9147L133.564 19.152L48.1468 103.459L91.3602 147.091L103.69 134.916L72.6735 103.62ZM92.0508 3.35601C28.1655 18.8613 -11.416 83.8173 4.09136 147.703V147.705C14.8762 192.14 49.5882 224.812 91.2215 235.371L102.339 224.397L192.346 135.561L149.302 91.7667L136.966 103.944L167.817 135.4L87.0748 215.093C55.6762 204.109 30.2162 177.953 21.8295 143.4L21.8282 143.399C8.69082 89.268 42.2282 34.2307 96.3588 21.0933C102.364 19.6347 108.383 18.7533 114.354 18.4107L132.36 0.636021C119.199 -0.739979 105.603 0.0653386 92.0535 3.35334L92.0508 3.35601V3.35601ZM123.46 135.111L92.5068 103.749L142.77 54.1413L175.508 46.1933L117.035 103.911L147.987 135.271L97.7255 184.879L64.9842 192.827L123.46 135.111" fill="url(#paint0_linear)"></path> <defs> <linearGradient id="paint0_linear" x1="121.828" y1="308.483" x2="118.678" y2="-67.8613" gradientUnits="userSpaceOnUse"> <stop stop-color="#ED0E90"></stop> <stop offset="0.5" stop-color="#EE2429"></stop> <stop offset="1" stop-color="#F8A10E"></stop> </linearGradient> </defs> </svg> 